<?xml version="1.0" standalone="no"?>
<!DOCTYPE svg PUBLIC "-//W3C//DTD SVG 20010904//EN"
 "http://www.w3.org/TR/2001/REC-SVG-20010904/DTD/svg10.dtd">
<svg version="1.0" xmlns="http://www.w3.org/2000/svg"
 width="512.000000pt" height="512.000000pt" viewBox="0 0 512.000000 512.000000"
 preserveAspectRatio="xMidYMid meet">
<metadata>
Created by potrace 1.11, written by Peter Selinger 2001-2013
</metadata>
<g transform="translate(0.000000,512.000000) scale(0.100000,-0.100000)"
fill="#000000" stroke="none">
<path d="M3326 5055 c-18 -27 -22 -60 -5 -50 6 4 1 -11 -10 -33 -19 -36 -37
-52 -62 -52 -6 0 -7 5 -3 12 5 8 -4 9 -31 5 -55 -9 -110 -65 -101 -102 5 -20
10 -24 20 -16 18 15 81 -50 64 -67 -9 -9 -9 -12 0 -12 7 0 12 -9 12 -21 0 -11
4 -18 9 -15 5 3 5 -14 0 -40 -13 -70 -6 -108 21 -112 12 -2 32 5 43 16 12 11
41 29 64 41 35 18 46 19 68 9 14 -6 24 -17 21 -23 -13 -36 106 -39 125 -3 6
11 8 27 5 35 -4 9 -2 21 3 27 11 14 2 68 -10 60 -5 -3 -9 3 -9 13 0 10 23 41
50 68 49 48 63 86 39 100 -6 4 -8 13 -5 20 6 17 -41 25 -65 11 -35 -20 -122
19 -89 39 13 8 -10 54 -24 49 -7 -3 -18 7 -24 21 -7 15 -20 25 -32 25 -12 0
-18 5 -15 10 14 23 -44 9 -59 -15z"/>
<path d="M1370 4943 c-34 -7 -50 -21 -50 -48 0 -29 -46 -75 -75 -75 -28 0 -40
-15 -48 -58 -8 -38 13 -53 44 -34 10 7 32 12 49 12 27 0 30 -3 30 -33 0 -18
-5 -38 -11 -44 -6 -6 -8 -20 -5 -31 6 -17 13 -20 44 -15 41 6 62 26 62 58 0
29 40 65 73 65 29 0 32 4 41 58 7 38 -14 53 -45 34 -10 -7 -30 -12 -44 -12
-22 0 -25 4 -25 39 0 22 5 43 10 46 11 7 -5 46 -18 44 -4 -1 -18 -4 -32 -6z"/>
<path d="M2413 4943 c-35 -7 -149 -69 -195 -105 -84 -68 -196 -259 -203 -345
-2 -28 -9 -78 -15 -111 -7 -42 -8 -85 -1 -138 5 -42 7 -82 4 -90 -2 -7 2 -28
10 -46 17 -37 30 -75 32 -98 3 -26 16 -60 24 -60 7 0 52 -74 52 -85 -1 -15 13
-35 23 -35 18 0 67 -54 69 -77 1 -14 7 -19 22 -18 11 2 28 -3 38 -9 14 -11 15
-19 6 -52 -13 -46 -82 -168 -116 -205 -13 -14 -23 -32 -21 -40 2 -8 -3 -13
-10 -11 -17 3 -73 -43 -64 -53 4 -5 2 -5 -5 -1 -7 4 -36 -5 -65 -20 -47 -24
-60 -26 -125 -21 -60 4 -84 1 -144 -19 -80 -27 -123 -51 -157 -86 -33 -36
-224 -377 -203 -364 14 9 8 -7 -49 -129 -23 -49 -47 -97 -55 -105 -17 -19 -67
-133 -55 -125 11 7 -74 -190 -98 -225 -22 -34 -73 -142 -64 -136 4 2 -3 -39
-17 -92 -20 -83 -22 -104 -13 -148 16 -79 43 -127 72 -130 14 -1 45 -7 70 -13
45 -10 75 -8 115 9 35 14 149 43 184 46 18 1 57 15 85 30 73 38 238 105 230
93 -9 -15 108 46 142 73 16 13 65 46 109 73 44 27 113 71 153 97 40 27 77 46
82 43 5 -3 12 0 16 6 5 8 3 9 -6 4 -9 -5 -11 -4 -6 4 4 6 12 9 17 6 5 -4 46
21 92 54 l82 60 -1 328 c-2 416 -2 423 -12 423 -5 0 -14 -30 -21 -67 -7 -37
-17 -73 -22 -79 -5 -7 -11 -38 -13 -70 -5 -78 -14 -130 -33 -182 -9 -24 -17
-62 -18 -85 -4 -83 -5 -93 -17 -110 -15 -19 -183 -93 -172 -75 4 6 3 9 -2 6
-92 -52 -341 -157 -330 -139 6 10 -52 -3 -89 -19 -32 -14 -88 -18 -107 -9 -9
5 -21 25 -27 44 -9 32 -5 43 36 118 53 94 79 127 104 127 34 0 49 -12 55 -46
3 -19 10 -34 14 -34 5 0 12 -25 15 -55 6 -47 10 -55 29 -55 11 0 35 9 53 19
42 26 234 101 227 89 -4 -5 8 -2 25 6 17 9 33 16 36 16 15 -1 67 33 80 53 8
13 17 52 19 88 5 81 16 141 28 156 6 7 11 37 13 68 4 69 24 166 37 182 5 7 12
43 14 80 5 78 34 146 76 177 25 18 28 18 52 2 14 -9 26 -22 26 -28 0 -6 9 -22
21 -34 14 -15 22 -40 25 -80 3 -33 10 -68 15 -79 14 -31 28 -106 23 -120 -3
-7 2 -30 11 -51 9 -22 18 -68 20 -103 3 -36 9 -67 15 -71 9 -5 18 -78 20 -148
0 -13 4 -20 10 -17 5 3 10 -3 10 -14 0 -12 9 -22 23 -27 12 -3 30 -13 39 -22
10 -8 28 -16 42 -17 33 -4 96 -27 96 -36 0 -9 41 -24 54 -20 12 3 90 -29 97
-40 3 -5 24 -12 47 -15 39 -4 42 -3 42 20 0 14 4 27 9 30 8 5 24 65 26 95 0
17 48 23 80 11 25 -9 60 -64 51 -79 -3 -5 5 -19 17 -32 60 -63 68 -113 24
-144 -28 -19 -104 -19 -141 0 -17 9 -41 17 -55 19 -44 5 -101 27 -96 37 4 5
-4 10 -17 11 -47 3 -128 28 -128 39 0 8 -33 21 -60 24 -29 3 -89 29 -84 36 2
5 -12 11 -33 15 -21 4 -50 13 -65 21 -24 11 -28 20 -28 53 0 22 -4 40 -9 40
-9 0 -27 94 -22 118 1 7 -5 32 -14 55 -8 23 -17 67 -19 98 -2 31 -9 66 -15 78
-7 12 -14 51 -16 88 -5 68 -11 86 -23 66 -5 -9 -8 -609 -3 -709 1 -11 12 -27
26 -34 13 -7 22 -17 19 -22 -3 -4 14 -17 38 -27 24 -10 59 -35 78 -54 18 -20
37 -34 42 -31 9 6 67 -32 85 -57 7 -9 25 -19 41 -22 16 -3 44 -20 61 -37 17
-18 47 -36 66 -41 19 -5 48 -21 65 -35 16 -14 44 -30 62 -35 18 -5 48 -23 67
-39 18 -17 44 -30 57 -30 27 0 72 -18 96 -38 10 -8 28 -16 40 -17 43 -5 107
-28 102 -36 -3 -5 3 -10 13 -11 42 -4 50 -5 83 -12 19 -4 44 -14 55 -20 21
-13 141 -29 209 -28 32 0 46 8 80 41 l41 41 -3 116 c-3 91 -7 122 -22 147 -11
18 -24 56 -30 85 -7 29 -15 50 -20 47 -9 -6 -40 66 -40 94 0 11 -6 26 -14 33
-21 21 -43 69 -50 111 -4 20 -11 37 -16 37 -11 0 -40 65 -45 98 -1 12 -9 30
-17 40 -20 22 -49 79 -46 89 3 13 -13 53 -22 53 -8 0 -41 75 -38 88 4 14 -14
52 -22 47 -8 -5 -40 64 -40 88 0 6 -14 32 -30 56 -17 24 -35 61 -40 83 -6 21
-15 38 -21 38 -12 0 -65 61 -62 71 2 6 -16 16 -47 24 -73 21 -98 30 -94 36 2
4 -45 9 -104 12 -181 10 -208 17 -245 64 -10 13 -23 21 -28 17 -10 -6 -70 56
-64 66 2 3 -12 24 -31 45 -19 21 -35 43 -35 49 -1 6 -3 21 -4 33 -1 12 -9 33
-17 45 -8 13 -18 34 -21 49 -5 20 -1 28 22 42 45 27 143 138 176 200 17 31 38
72 48 91 10 20 20 57 22 84 2 27 9 77 15 110 7 42 8 85 1 138 -5 42 -7 82 -4
90 2 7 -2 28 -10 46 -18 39 -29 75 -33 103 -1 11 -3 23 -3 27 -1 4 -7 13 -14
20 -14 14 -64 93 -59 93 2 0 0 8 -3 18 -4 9 -12 17 -19 17 -7 0 -29 23 -50 50
-21 28 -46 50 -56 50 -9 0 -36 14 -59 30 -33 24 -54 31 -107 35 -36 3 -75 7
-87 9 -12 2 -32 2 -44 -1z"/>
<path d="M4658 4813 c-11 -10 -18 -13 -18 -5 0 16 -52 16 -68 0 -7 -7 -12 -31
-12 -53 0 -55 -31 -85 -86 -85 -22 0 -45 -5 -52 -12 -15 -15 -16 -55 -2 -63 8
-5 7 -11 -1 -21 -9 -11 -6 -16 12 -23 18 -7 29 -4 45 10 11 10 35 19 52 19 30
0 32 -2 32 -34 0 -18 -6 -39 -13 -45 -8 -6 -12 -23 -9 -41 3 -24 7 -28 17 -20
9 8 15 8 20 0 8 -14 48 -13 63 2 7 7 12 31 12 53 0 55 31 85 86 85 22 0 45 5
52 12 15 15 16 68 0 68 -6 0 -4 8 6 19 16 18 16 19 -14 23 -21 3 -35 -1 -47
-14 -9 -10 -30 -18 -50 -18 -30 0 -33 2 -33 32 0 17 8 41 18 52 13 14 17 30
13 49 -6 27 -7 27 -23 10z"/>
<path d="M453 4610 c-43 -43 -49 -54 -45 -81 5 -31 4 -32 -27 -27 -28 4 -39
-2 -86 -49 -51 -51 -53 -55 -37 -73 13 -16 19 -17 31 -7 11 8 36 10 76 7 33
-3 55 -8 49 -12 -6 -4 -9 -21 -6 -38 3 -25 7 -28 18 -19 12 9 14 4 14 -29 0
-27 5 -42 16 -46 13 -5 14 -9 4 -21 -11 -13 -7 -15 22 -15 43 0 68 25 68 70 0
28 -2 31 -15 20 -13 -11 -15 -6 -15 39 l0 51 51 0 c45 0 50 -2 39 -15 -23 -27
52 -19 78 8 25 27 33 98 8 78 -10 -9 -16 -8 -26 4 -7 8 -28 15 -47 15 -29 0
-33 3 -24 14 17 21 -43 27 -64 7 -13 -14 -15 -9 -15 49 0 42 5 69 15 80 14 15
13 18 -9 28 -22 10 -29 6 -73 -38z m-13 -115 c0 -20 -5 -25 -27 -25 l-26 0 23
25 c13 14 25 25 27 25 2 0 3 -11 3 -25z"/>
<path d="M4506 4262 c-3 -6 -24 -8 -45 -5 l-40 5 -33 -66 c-34 -70 -35 -71
-112 -81 -45 -6 -49 -5 -37 9 12 14 10 16 -17 16 -39 0 -62 -23 -62 -62 0 -26
2 -29 15 -18 9 8 15 8 15 2 0 -6 11 -24 25 -40 21 -25 23 -31 11 -42 -13 -10
-12 -14 2 -29 14 -15 19 -16 33 -5 10 10 18 11 26 3 14 -14 -5 -108 -27 -134
-14 -15 -16 -26 -9 -44 7 -19 12 -22 21 -13 7 7 25 12 40 12 16 0 55 14 88 30
55 28 75 29 50 4 -7 -7 -3 -14 14 -22 19 -8 27 -8 36 3 10 13 16 12 41 0 15
-8 38 -15 50 -15 18 0 19 -2 9 -15 -11 -13 -8 -15 19 -15 28 0 31 3 31 31 0
24 -3 29 -12 21 -10 -8 -14 4 -15 52 l-3 62 60 59 c50 49 60 65 60 93 0 27 -3
32 -13 24 -10 -8 -16 -6 -25 9 -8 12 -23 19 -44 19 -30 0 -30 1 -14 19 16 18
16 19 -14 23 -18 3 -35 -1 -41 -9 -19 -22 -39 -15 -56 22 -15 31 -15 36 -1 52
14 16 14 20 -2 36 -10 11 -21 14 -24 9z"/>
<path d="M3625 4210 c-37 -5 -40 -7 -43 -40 -2 -19 -8 -39 -13 -44 -5 -6 -9
-18 -9 -28 0 -11 -7 -18 -19 -18 -11 0 -23 -4 -26 -10 -3 -5 -21 -10 -40 -10
-39 0 -48 -11 -51 -61 -1 -30 2 -38 19 -43 12 -3 26 -1 31 4 6 6 32 10 58 10
41 0 48 -3 48 -19 0 -11 -4 -23 -10 -26 -5 -3 -10 -22 -10 -41 0 -19 4 -33 9
-30 5 3 11 -3 14 -15 4 -16 12 -20 39 -17 33 3 33 3 36 63 2 32 8 65 14 72 6
8 32 13 64 13 56 0 84 17 84 50 0 10 -9 25 -20 33 -11 8 -17 17 -13 20 3 4
-10 7 -30 7 -20 0 -39 -4 -42 -10 -3 -5 -17 -10 -31 -10 -22 0 -24 4 -24 44 0
25 5 48 10 51 12 7 14 52 3 57 -5 2 -26 1 -48 -2z"/>
<path d="M1505 4140 c-38 -76 -41 -78 -141 -71 -23 2 -36 -4 -46 -18 -8 -12
-17 -18 -21 -15 -3 3 -3 -3 -1 -14 3 -10 30 -46 61 -78 l55 -59 -8 -50 c-14
-94 -11 -120 13 -123 12 -2 49 11 82 27 68 35 83 37 101 16 13 -16 83 -39 114
-37 11 1 23 7 27 14 8 13 4 142 -5 157 -3 4 18 30 47 57 l52 49 -50 -55 -50
-55 51 48 c43 41 50 52 46 78 -6 38 -48 61 -113 61 -44 -1 -51 2 -64 29 -9 16
-13 29 -10 29 8 0 -12 37 -33 61 -9 10 -29 19 -44 19 -24 0 -32 -9 -63 -70z"/>
<path d="M812 3878 c-7 -7 -12 -37 -12 -69 0 -32 -4 -61 -10 -64 -5 -3 -10
-15 -10 -26 0 -12 -7 -19 -19 -19 -11 0 -23 -4 -26 -10 -3 -5 -32 -10 -64 -10
-31 0 -62 -5 -69 -12 -19 -19 -14 -56 8 -68 11 -6 18 -15 14 -21 -3 -6 9 -9
31 -7 20 1 39 6 41 10 3 4 27 8 55 8 42 0 49 -3 49 -19 0 -11 -4 -23 -10 -26
-5 -3 -10 -22 -10 -41 0 -21 4 -33 10 -29 6 4 10 -10 10 -35 0 -27 5 -43 15
-46 8 -4 12 -10 9 -15 -8 -14 50 -11 64 3 15 15 16 72 2 63 -15 -9 -13 118 2
133 15 15 142 17 133 2 -10 -16 38 -12 63 6 14 10 22 25 22 45 0 17 -4 28 -9
25 -5 -3 -14 1 -21 9 -7 8 -28 15 -47 15 -20 0 -32 4 -28 10 10 16 -52 16 -69
-1 -6 -5 -20 -9 -33 -9 -21 0 -23 5 -23 44 0 25 5 48 10 51 6 3 10 22 10 42 0
20 -3 33 -7 30 -3 -4 -11 3 -17 16 -13 25 -46 33 -64 15z"/>
<path d="M3977 3533 c-4 -4 -24 -7 -45 -7 -35 -1 -37 -3 -40 -36 -1 -19 -5
-42 -9 -50 -9 -23 -10 -61 -1 -66 17 -11 8 -44 -13 -44 -11 0 -18 4 -15 8 4 7
-29 8 -44 1 -11 -5 -26 -7 -62 -8 -47 -1 -72 -25 -63 -60 3 -14 6 -31 7 -37 1
-8 13 -8 37 -3 20 5 61 9 93 9 l56 0 -2 -31 c-1 -16 1 -32 6 -35 4 -3 8 -39 8
-80 0 -48 4 -73 10 -69 6 3 10 1 10 -5 0 -7 6 -8 19 0 33 17 51 41 51 66 0 14
4 23 9 20 10 -7 9 20 -2 30 -4 4 -7 30 -7 57 l0 50 83 -7 c78 -6 84 -5 103 16
48 53 36 71 -51 77 -33 2 -62 6 -65 10 -8 10 -40 10 -34 -1 4 -6 -2 -8 -12 -6
-17 3 -19 14 -19 106 0 56 0 102 -1 102 0 0 -4 -3 -7 -7z"/>
<path d="M4691 3246 c-8 -10 -22 -14 -36 -10 -29 7 -55 -19 -55 -55 0 -33 -56
-91 -87 -91 -40 0 -53 -11 -53 -45 0 -18 -7 -38 -15 -45 -14 -11 -13 -14 7
-25 19 -10 26 -9 44 7 13 11 36 18 62 18 38 0 42 -3 42 -24 0 -13 -7 -29 -15
-36 -8 -7 -15 -28 -15 -47 0 -30 2 -34 15 -23 11 10 18 9 30 -4 19 -19 29 -20
56 -6 15 9 19 22 19 63 0 29 5 58 12 65 7 7 36 12 65 12 47 0 55 3 65 25 9 19
8 29 -5 48 -11 16 -12 28 -6 34 7 7 0 12 -20 15 -22 3 -36 -1 -48 -14 -9 -10
-27 -18 -40 -18 -20 0 -23 5 -23 42 0 27 7 49 19 62 17 18 18 24 7 44 -11 21
-14 22 -25 8z"/>
<path d="M500 3141 c-5 -11 -10 -37 -10 -59 0 -51 -23 -72 -81 -72 -25 0 -50
-5 -57 -12 -15 -15 -16 -55 -1 -63 6 -4 8 -13 5 -21 -4 -10 4 -14 29 -14 18 0
37 5 40 10 3 6 19 10 36 10 27 0 29 -2 29 -39 0 -22 -4 -42 -8 -45 -5 -3 -7
-18 -5 -33 4 -27 8 -29 51 -28 l47 0 3 47 c4 64 38 98 98 98 47 0 71 23 60 58
-3 9 -5 21 -3 26 3 14 -56 27 -67 16 -6 -6 -27 -10 -48 -10 -35 0 -38 2 -38
29 0 17 5 33 10 36 6 3 10 22 10 40 0 25 -4 33 -14 29 -8 -3 -17 -1 -21 5 -11
18 -54 12 -65 -8z"/>
<path d="M2395 2239 c-44 -32 -85 -57 -92 -54 -7 2 -15 -1 -19 -7 -5 -7 -2 -8
6 -3 9 5 11 4 6 -4 -4 -6 -11 -9 -15 -6 -9 5 -156 -90 -206 -134 -17 -14 -67
-46 -112 -71 l-81 -45 0 -138 c0 -123 -2 -141 -19 -160 -25 -28 -99 -162 -85
-153 6 3 -5 -32 -24 -79 -19 -46 -34 -90 -34 -97 0 -6 -7 -19 -16 -29 -9 -10
-17 -40 -19 -71 -5 -83 -25 -146 -52 -168 l-24 -19 25 -16 c16 -11 36 -15 53
-11 15 3 65 8 110 11 60 3 98 11 135 29 62 29 159 47 183 33 9 -5 26 -6 37 -3
30 7 75 -19 93 -54 9 -17 20 -30 26 -30 10 0 47 -56 49 -75 2 -16 32 -45 41
-39 9 5 99 -15 114 -26 6 -4 41 -8 79 -8 37 -1 73 -6 80 -11 6 -5 51 -10 99
-10 48 0 96 -5 107 -11 29 -16 36 -13 64 30 14 22 24 40 20 40 -11 0 77 69 96
75 11 4 20 11 20 16 0 6 4 8 9 4 5 -3 12 -1 16 5 8 13 108 13 121 0 5 -5 32
-12 59 -15 28 -3 69 -15 92 -26 23 -11 71 -22 109 -25 38 -3 73 -9 78 -14 13
-13 53 -13 61 0 3 6 18 10 33 10 15 0 47 10 72 22 l45 21 -35 9 c-19 5 -39 13
-45 18 -5 4 -39 10 -74 14 -35 3 -70 11 -78 17 -7 7 -30 13 -51 14 -54 3 -124
16 -118 22 2 3 -5 16 -17 30 -27 30 -35 55 -36 115 -1 26 -5 50 -11 53 -10 6
-30 71 -36 118 -2 15 -10 34 -18 43 -9 8 -22 36 -30 62 -7 26 -28 68 -45 94
-17 25 -31 52 -31 60 0 7 -7 24 -16 37 -13 19 -17 51 -18 158 -1 107 -4 136
-16 143 -8 5 -10 10 -5 10 6 0 -1 7 -15 14 -14 8 -28 12 -32 10 -9 -6 -56 23
-85 53 -12 13 -29 23 -37 23 -22 0 -87 41 -81 50 4 7 -24 22 -45 25 -16 1 -79
48 -75 55 4 7 -25 23 -46 25 -14 1 -77 50 -73 57 4 6 -81 51 -89 47 -1 0 -38
-27 -82 -60z"/>
<path d="M1405 970 c-27 -11 -60 -19 -72 -20 -34 0 -36 -18 -3 -25 17 -4 28
-11 24 -16 -3 -5 5 -10 18 -11 28 -1 33 -2 80 -11 21 -4 44 -15 52 -23 9 -8
28 -16 44 -18 42 -6 104 -34 98 -45 -5 -8 22 -23 44 -26 19 -1 89 -39 85 -46
-5 -7 33 -25 47 -21 12 3 82 -30 93 -44 5 -8 24 -16 40 -18 33 -4 87 -26 96
-40 7 -9 51 -4 114 13 22 6 73 13 114 16 40 2 80 10 88 17 9 7 54 14 112 15
53 2 110 8 128 14 17 5 60 12 95 14 35 2 66 4 71 4 4 1 7 7 7 15 0 9 -7 12
-19 9 -10 -2 -45 1 -77 8 -32 6 -77 13 -99 14 -22 0 -57 2 -78 3 -23 1 -36 6
-32 12 6 9 -30 15 -63 11 -27 -4 -80 21 -98 44 -10 14 -23 25 -29 25 -11 0
-48 62 -51 87 -3 20 -9 25 -51 39 -55 19 -141 28 -156 16 -18 -15 -154 -55
-169 -50 -7 3 -35 -1 -63 -8 -66 -18 -126 -17 -161 1 -16 8 -38 15 -50 15 -11
0 -35 11 -54 25 -40 29 -57 30 -125 5z"/>
<path d="M1155 912 c-13 -12 -140 -44 -186 -47 -20 -1 -52 -10 -70 -19 -19
-10 -68 -31 -109 -48 -41 -16 -85 -36 -98 -44 -12 -8 -26 -13 -31 -10 -4 3
-21 -9 -37 -27 l-29 -32 35 30 35 30 -29 -32 c-15 -17 -34 -29 -41 -27 -14 6
-39 -21 -31 -34 3 -5 -4 -18 -17 -28 l-22 -19 20 25 20 25 -22 -19 c-13 -10
-20 -22 -18 -27 3 -4 -9 -30 -26 -57 -22 -36 -34 -71 -42 -127 -6 -46 -7 -79
-1 -83 9 -7 37 -63 48 -95 3 -9 14 -20 23 -24 21 -7 88 -63 76 -63 -4 0 2 -7
14 -15 12 -9 26 -15 30 -14 4 1 21 -3 36 -9 16 -7 32 -12 36 -12 5 0 14 -7 21
-15 8 -9 30 -15 59 -15 25 0 66 -5 91 -11 44 -11 493 -14 630 -4 36 2 110 6
165 9 55 2 113 10 129 16 16 6 68 11 115 11 47 1 91 5 98 11 6 5 51 11 100 14
87 4 106 7 213 39 30 9 73 18 96 20 22 1 56 10 75 19 55 26 210 76 204 65 -7
-10 93 27 110 41 16 13 215 89 209 79 -6 -11 80 25 121 51 46 28 236 110 229
99 -8 -14 102 42 159 80 64 44 199 112 217 109 19 -2 88 20 116 37 12 8 54 23
95 36 73 21 108 39 78 39 -8 0 -33 9 -54 21 -25 13 -57 20 -83 20 -24 -1 -62
4 -83 9 -36 10 -43 9 -69 -13 -16 -14 -26 -28 -22 -32 4 -5 1 -5 -6 -1 -7 4
-28 -1 -47 -13 -43 -25 -149 -39 -169 -22 -8 7 -27 11 -43 9 -41 -4 -124 12
-118 23 4 5 0 10 -7 10 -7 1 -26 3 -43 4 -16 2 -56 12 -88 24 -49 17 -68 18
-108 11 -90 -17 -116 -39 -189 -160 -28 -47 -104 -89 -160 -88 -19 0 -60 -7
-90 -16 -30 -9 -86 -15 -125 -15 -38 1 -100 -6 -137 -15 -37 -9 -80 -16 -95
-15 -32 3 -93 -10 -108 -21 -13 -9 -84 -21 -158 -26 -32 -2 -67 -8 -77 -14
-26 -14 -111 -30 -184 -35 -32 -2 -63 -8 -69 -14 -29 -29 -92 4 -71 37 14 21
52 31 141 37 40 2 80 9 90 14 10 5 26 12 35 15 33 10 -12 57 -45 48 -4 -1 -24
7 -45 18 -20 12 -48 27 -62 35 -14 7 -40 19 -59 26 -18 7 -41 20 -50 30 -9 9
-43 27 -75 38 -33 11 -63 25 -66 31 -4 6 -27 13 -51 16 -24 3 -63 14 -86 25
-23 11 -57 22 -75 24 -48 4 -89 23 -86 37 3 15 -43 23 -57 10z"/>
<path d="M4146 792 c-3 -6 -20 -15 -36 -21 -17 -5 -28 -6 -25 -1 6 10 -83 -18
-100 -31 -16 -12 -176 -61 -182 -56 -8 9 -116 -43 -143 -68 -31 -29 -228 -127
-243 -122 -12 4 -120 -45 -147 -67 -25 -20 -211 -97 -221 -91 -5 3 -41 -10
-81 -30 -90 -45 -227 -97 -238 -90 -21 13 -134 -44 -118 -60 2 -2 39 -7 82 -9
43 -3 83 -9 90 -14 6 -5 44 -9 85 -10 41 -1 77 -5 80 -10 3 -6 44 -10 90 -10
46 -1 87 -5 90 -10 3 -6 46 -10 94 -11 48 0 93 -4 100 -8 13 -8 36 -9 397 -15
129 -3 251 -1 270 3 19 4 71 10 115 13 46 2 95 11 115 21 19 10 55 27 79 39
67 32 155 118 180 176 33 77 36 127 12 183 -12 27 -21 55 -21 64 0 8 -20 35
-45 60 -24 25 -42 50 -39 55 3 4 -10 15 -29 23 -18 7 -49 28 -68 46 -19 18
-47 36 -64 40 -16 4 -40 11 -51 14 -12 4 -24 2 -28 -3z"/>
</g>
</svg>
